<svg id="svg" version="1.1" xmlns="http://www.w3.org/2000/svg" xmlns:xlink="http://www.w3.org/1999/xlink" width="400" height="291.56626506024094" viewBox="0, 0, 400,291.56626506024094"><g id="svgg"><path id="path0" d="M186.397 80.390 C 186.377 80.464,186.344 80.689,186.324 80.890 C 186.298 81.152,185.257 81.296,182.640 81.400 C 179.397 81.530,178.998 81.603,179.034 82.057 C 179.069 82.501,178.792 82.567,176.901 82.567 C 175.544 82.567,174.795 82.676,174.907 82.856 C 175.009 83.021,174.892 83.070,174.632 82.971 C 174.339 82.858,174.179 82.962,174.179 83.266 C 174.179 83.675,172.286 83.970,170.915 83.775 C 170.804 83.759,170.631 84.006,170.531 84.324 C 170.354 84.881,169.344 85.088,167.666 84.913 C 167.345 84.880,167.071 85.097,166.976 85.463 C 166.813 86.085,166.616 86.169,165.528 86.084 C 165.182 86.056,164.821 86.161,164.725 86.316 C 164.629 86.471,164.268 86.523,163.922 86.433 C 163.391 86.294,163.318 86.367,163.457 86.898 C 163.603 87.457,163.503 87.528,162.555 87.532 C 161.412 87.537,160.647 87.868,160.807 88.289 C 160.860 88.432,160.156 88.588,159.242 88.636 C 157.894 88.706,157.545 88.830,157.399 89.292 C 157.287 89.644,156.956 89.861,156.532 89.861 C 155.544 89.861,154.923 90.155,154.923 90.622 C 154.923 90.846,154.714 91.028,154.458 91.028 C 154.203 91.028,153.925 91.291,153.841 91.612 C 153.734 92.020,153.443 92.195,152.871 92.195 C 151.758 92.195,151.131 92.469,151.131 92.956 C 151.131 93.185,150.813 93.378,150.401 93.399 C 149.073 93.465,148.942 93.506,148.942 93.849 C 148.942 94.490,148.618 94.647,146.827 94.873 C 146.627 94.898,146.462 95.159,146.462 95.453 C 146.462 95.794,146.250 95.988,145.879 95.988 C 145.490 95.988,145.295 96.183,145.295 96.572 C 145.295 97.026,145.101 97.155,144.420 97.155 C 143.939 97.155,143.545 97.294,143.545 97.464 C 143.545 97.634,143.413 97.692,143.251 97.592 C 143.089 97.492,142.878 97.615,142.782 97.866 C 142.686 98.117,142.359 98.322,142.055 98.322 C 141.703 98.322,141.503 98.528,141.503 98.888 C 141.503 99.332,141.266 99.474,140.408 99.545 C 139.540 99.617,139.314 99.756,139.312 100.219 C 139.311 100.643,139.127 100.792,138.639 100.766 C 138.172 100.741,138.015 100.855,138.125 101.142 C 138.312 101.628,137.483 102.004,136.032 102.093 C 135.832 102.105,135.667 102.374,135.667 102.690 C 135.667 103.073,135.526 103.210,135.242 103.101 C 134.959 102.992,134.754 103.187,134.629 103.684 C 134.526 104.094,134.357 104.419,134.252 104.405 C 133.360 104.288,132.986 104.497,133.126 105.033 C 133.241 105.473,133.135 105.616,132.695 105.616 C 132.357 105.616,132.048 105.862,131.959 106.200 C 131.875 106.521,131.613 106.783,131.376 106.783 C 131.139 106.783,130.878 107.039,130.796 107.351 C 130.697 107.731,130.348 107.947,129.736 108.007 C 129.176 108.062,128.709 108.324,128.526 108.686 C 128.355 109.024,128.009 109.233,127.717 109.176 C 127.436 109.120,127.206 109.216,127.206 109.388 C 127.206 109.560,127.363 109.701,127.554 109.701 C 127.745 109.701,127.652 109.883,127.347 110.106 C 127.043 110.329,126.634 110.450,126.440 110.376 C 126.238 110.298,126.045 110.531,125.990 110.919 C 125.927 111.363,125.725 111.570,125.405 111.517 C 125.128 111.471,124.837 111.686,124.734 112.012 C 124.633 112.329,124.298 112.669,123.988 112.767 C 123.679 112.865,123.438 113.036,123.454 113.147 C 123.543 113.775,123.351 114.077,122.862 114.077 C 122.517 114.077,122.326 114.268,122.352 114.588 C 122.378 114.911,122.152 115.132,121.736 115.192 C 121.375 115.243,121.080 115.472,121.080 115.701 C 121.080 116.287,118.241 119.120,117.878 118.896 C 117.712 118.794,117.578 118.965,117.578 119.278 C 117.578 119.599,117.326 119.910,116.995 119.997 C 116.674 120.081,116.411 120.359,116.411 120.615 C 116.411 120.870,116.222 121.080,115.990 121.080 C 115.758 121.080,115.388 121.441,115.168 121.882 C 114.948 122.323,114.596 122.646,114.387 122.599 C 114.150 122.547,114.071 122.685,114.178 122.964 C 114.273 123.211,114.224 123.414,114.068 123.414 C 113.913 123.414,113.801 123.512,113.820 123.632 C 113.944 124.419,113.719 124.872,113.202 124.872 C 112.813 124.872,112.619 125.067,112.619 125.456 C 112.619 125.795,112.424 126.039,112.154 126.039 C 111.898 126.039,111.620 126.302,111.536 126.623 C 111.396 127.159,111.272 127.238,110.649 127.189 C 110.529 127.180,110.353 127.475,110.259 127.846 C 110.164 128.216,109.934 128.487,109.748 128.446 C 109.562 128.406,109.409 128.565,109.409 128.800 C 109.409 129.034,109.114 129.501,108.753 129.838 C 108.088 130.457,108.052 130.539,107.987 131.583 C 107.963 131.960,107.744 132.166,107.367 132.166 C 106.978 132.166,106.783 132.361,106.783 132.750 C 106.783 133.071,106.643 133.333,106.471 133.333 C 105.760 133.333,105.289 134.160,105.661 134.755 C 106.037 135.358,105.219 138.877,104.702 138.877 C 104.571 138.877,104.247 139.297,103.981 139.811 C 103.716 140.324,103.318 140.925,103.099 141.144 C 102.879 141.364,102.699 141.646,102.699 141.771 C 102.699 141.895,102.469 142.273,102.188 142.611 C 101.907 142.949,101.284 143.885,100.802 144.692 C 100.321 145.499,99.830 146.162,99.712 146.165 C 99.594 146.168,99.298 146.597,99.054 147.119 C 98.810 147.640,98.287 148.592,97.893 149.234 C 97.499 149.876,96.973 150.828,96.724 151.349 C 96.476 151.871,96.153 152.298,96.008 152.298 C 95.862 152.298,95.659 152.678,95.557 153.143 C 95.455 153.607,95.117 154.219,94.805 154.501 C 94.493 154.783,94.238 155.173,94.238 155.367 C 94.238 155.561,93.975 156.054,93.654 156.462 C 93.333 156.870,93.071 157.395,93.071 157.629 C 93.071 157.863,92.808 158.388,92.487 158.796 C 92.166 159.204,91.904 159.729,91.904 159.963 C 91.904 160.197,91.641 160.722,91.320 161.130 C 90.999 161.538,90.737 162.063,90.737 162.297 C 90.737 162.531,90.494 163.035,90.198 163.418 C 89.901 163.801,89.573 164.466,89.468 164.896 C 89.363 165.326,89.102 165.852,88.889 166.066 C 88.676 166.279,88.403 166.846,88.283 167.326 C 88.163 167.806,87.894 168.395,87.685 168.636 C 87.476 168.877,87.205 169.402,87.084 169.803 C 86.963 170.204,86.619 170.846,86.320 171.228 C 86.021 171.611,85.777 172.115,85.777 172.349 C 85.777 172.583,85.514 173.108,85.193 173.516 C 84.872 173.924,84.610 174.485,84.610 174.763 C 84.610 175.041,84.347 175.602,84.026 176.010 C 83.705 176.418,83.443 177.043,83.443 177.400 C 83.443 177.757,83.196 178.459,82.895 178.959 C 82.593 179.459,82.262 180.348,82.158 180.933 C 82.054 181.519,81.791 182.145,81.575 182.325 C 81.359 182.504,81.101 183.157,81.002 183.775 C 80.903 184.393,80.640 185.050,80.418 185.234 C 80.196 185.418,79.932 186.082,79.832 186.710 C 79.732 187.337,79.469 188.032,79.247 188.253 C 79.026 188.474,78.753 189.198,78.641 189.862 C 78.529 190.525,78.261 191.214,78.045 191.393 C 77.830 191.572,77.565 192.239,77.458 192.875 C 77.350 193.510,77.087 194.206,76.873 194.420 C 76.658 194.635,76.393 195.322,76.283 195.946 C 76.173 196.571,75.906 197.366,75.689 197.712 C 75.472 198.059,75.166 199.142,75.009 200.120 C 74.851 201.098,74.518 202.189,74.268 202.545 C 74.019 202.902,73.815 203.658,73.815 204.227 C 73.815 204.795,73.552 205.750,73.231 206.349 C 72.910 206.948,72.648 207.867,72.648 208.391 C 72.648 208.916,72.405 209.802,72.109 210.362 C 71.813 210.921,71.484 212.025,71.378 212.816 C 71.272 213.607,71.007 214.460,70.788 214.712 C 70.568 214.965,70.299 215.894,70.188 216.776 C 70.077 217.659,69.816 218.643,69.608 218.964 C 69.399 219.285,69.135 220.547,69.021 221.769 C 68.906 222.990,68.630 224.342,68.407 224.771 C 68.184 225.201,67.913 226.565,67.805 227.802 C 67.697 229.039,67.432 230.402,67.215 230.831 C 66.998 231.259,66.702 232.673,66.557 233.972 C 66.412 235.270,66.138 236.520,65.949 236.748 C 65.760 236.975,65.489 238.386,65.348 239.883 C 65.206 241.379,64.887 243.090,64.638 243.685 C 64.370 244.327,64.187 245.634,64.187 246.900 C 64.187 248.074,63.980 249.752,63.728 250.629 C 63.475 251.507,63.148 254.260,63.001 256.747 C 62.850 259.285,62.540 261.836,62.293 262.561 C 61.995 263.436,61.846 265.084,61.831 267.667 C 61.820 269.764,61.613 274.435,61.372 278.045 C 61.132 281.656,60.871 286.218,60.794 288.184 L 60.652 291.758 103.557 291.758 L 146.462 291.758 146.462 284.172 C 146.462 277.696,146.525 276.586,146.891 276.586 C 147.171 276.586,147.255 276.418,147.133 276.101 C 147.014 275.791,147.062 275.686,147.265 275.812 C 147.481 275.946,147.569 275.517,147.539 274.474 C 147.333 267.223,147.641 261.066,148.218 260.915 C 148.541 260.830,148.788 260.613,148.767 260.432 C 148.422 257.541,148.858 251.204,149.401 251.204 C 149.849 251.204,149.992 251.034,149.952 250.547 C 149.730 247.809,149.985 245.431,150.514 245.293 C 151.010 245.163,151.068 244.811,151.112 241.693 C 151.157 238.414,151.380 237.542,152.065 237.965 C 152.193 238.044,152.298 236.985,152.298 235.612 C 152.298 233.374,152.354 233.115,152.839 233.115 C 153.305 233.115,153.404 232.800,153.551 230.862 C 153.679 229.161,153.850 228.516,154.249 228.223 C 154.790 227.827,154.823 227.662,154.887 225.018 C 154.918 223.693,155.002 223.487,155.507 223.487 C 155.828 223.487,156.075 223.388,156.056 223.268 C 155.829 221.830,156.150 220.038,156.658 219.905 C 157.126 219.783,157.242 219.453,157.315 218.047 C 157.381 216.762,157.512 216.338,157.841 216.338 C 158.174 216.338,158.299 215.903,158.365 214.515 C 158.441 212.930,158.527 212.691,159.022 212.691 C 159.492 212.691,159.592 212.487,159.592 211.524 C 159.592 210.746,159.786 210.163,160.175 209.774 C 160.558 209.391,160.759 208.801,160.759 208.057 C 160.759 207.182,160.887 206.891,161.324 206.777 C 161.754 206.664,161.911 206.325,161.980 205.357 C 162.050 204.378,162.184 204.093,162.561 204.122 C 162.831 204.142,163.064 203.945,163.080 203.684 C 163.182 202.031,163.271 201.691,163.574 201.808 C 164.047 201.989,164.242 201.566,164.399 200.011 C 164.549 198.525,164.757 198.016,165.122 198.241 C 165.389 198.406,165.708 197.427,165.714 196.426 C 165.717 195.965,165.893 195.770,166.302 195.770 C 166.691 195.770,166.885 195.575,166.885 195.186 C 166.885 194.865,167.080 194.602,167.318 194.602 C 167.718 194.602,167.877 194.227,168.125 192.706 C 168.184 192.342,168.407 192.155,168.720 192.208 C 169.123 192.278,169.220 192.067,169.220 191.114 C 169.220 190.129,169.316 189.934,169.803 189.934 C 170.214 189.934,170.387 189.740,170.387 189.275 C 170.387 188.913,170.649 188.452,170.970 188.252 C 171.342 188.019,171.554 187.571,171.554 187.014 C 171.554 186.346,171.686 186.142,172.117 186.142 C 172.428 186.142,172.765 185.879,172.867 185.558 C 172.968 185.237,173.248 184.974,173.487 184.974 C 173.726 184.974,173.841 184.843,173.742 184.683 C 173.643 184.522,173.701 184.391,173.870 184.391 C 174.040 184.391,174.179 183.997,174.179 183.516 C 174.179 182.835,174.309 182.640,174.763 182.640 C 175.161 182.640,175.346 182.446,175.346 182.030 C 175.346 181.674,175.579 181.358,175.903 181.273 C 176.209 181.193,176.528 180.864,176.613 180.542 C 176.697 180.220,176.897 180.037,177.056 180.135 C 177.216 180.234,177.429 180.057,177.529 179.742 C 177.629 179.427,177.966 179.088,178.279 178.989 C 178.592 178.889,178.848 178.555,178.848 178.244 C 178.848 177.875,179.049 177.681,179.431 177.681 C 179.820 177.681,180.015 177.486,180.015 177.097 C 180.015 176.708,180.209 176.513,180.598 176.513 C 180.987 176.513,181.182 176.319,181.182 175.930 C 181.182 175.548,181.376 175.346,181.745 175.346 C 182.056 175.346,182.393 175.084,182.495 174.763 C 182.596 174.442,182.933 174.179,183.244 174.179 C 183.613 174.179,183.807 173.978,183.807 173.596 C 183.807 173.195,184.013 173.002,184.464 172.979 C 185.860 172.907,185.994 172.851,185.955 172.356 C 185.927 172.001,186.127 171.845,186.612 171.845 C 187.114 171.845,187.309 171.683,187.309 171.262 C 187.309 170.790,187.503 170.678,188.324 170.678 C 189.167 170.678,189.371 170.553,189.525 169.942 C 189.688 169.290,189.819 169.226,190.664 169.385 C 191.235 169.492,191.698 169.434,191.818 169.241 C 191.927 169.063,192.130 168.988,192.269 169.074 C 192.407 169.159,192.701 168.972,192.921 168.657 C 193.231 168.214,193.728 168.066,195.129 167.998 C 196.626 167.926,196.937 167.823,196.937 167.398 C 196.937 166.936,197.299 166.885,200.584 166.885 C 204.036 166.885,204.230 166.917,204.230 167.469 C 204.230 167.988,204.425 168.053,205.981 168.053 C 207.306 168.053,207.732 168.154,207.732 168.470 C 207.732 168.924,208.617 169.327,209.774 169.400 C 210.175 169.426,210.733 169.461,211.014 169.479 C 211.323 169.498,211.524 169.747,211.524 170.108 C 211.524 170.436,211.689 170.683,211.889 170.657 C 212.658 170.557,212.917 170.696,212.878 171.189 C 212.847 171.577,213.099 171.721,213.931 171.790 C 214.801 171.862,215.026 172.000,215.026 172.464 C 215.026 172.784,215.156 172.966,215.316 172.867 C 215.476 172.769,215.929 173.035,216.322 173.460 C 216.716 173.885,217.176 174.147,217.345 174.043 C 217.513 173.939,217.651 174.053,217.651 174.298 C 217.651 174.818,218.523 175.346,219.383 175.346 C 219.791 175.346,219.985 175.535,219.985 175.930 C 219.985 176.319,220.180 176.513,220.569 176.513 C 220.958 176.513,221.152 176.708,221.152 177.097 C 221.152 177.486,221.347 177.681,221.736 177.681 C 222.057 177.681,222.336 177.812,222.356 177.972 C 222.376 178.133,222.409 178.428,222.429 178.629 C 222.449 178.829,222.654 178.993,222.884 178.993 C 223.115 178.993,223.416 179.426,223.553 179.955 C 223.690 180.485,224.027 181.010,224.301 181.122 C 224.575 181.235,224.799 181.521,224.799 181.757 C 224.799 181.992,225.073 182.322,225.406 182.488 C 225.740 182.655,225.956 182.963,225.886 183.173 C 225.816 183.382,226.031 183.625,226.364 183.712 C 226.696 183.799,227.047 184.119,227.143 184.422 C 227.240 184.726,227.572 184.974,227.883 184.974 C 228.335 184.974,228.446 185.181,228.446 186.023 C 228.446 186.826,228.583 187.107,229.030 187.224 C 229.417 187.325,229.613 187.622,229.613 188.106 C 229.613 188.692,229.728 188.805,230.197 188.683 C 230.768 188.533,230.976 189.150,230.797 190.468 C 230.768 190.681,231.015 190.926,231.346 191.012 C 231.685 191.101,231.947 191.409,231.947 191.719 C 231.947 192.074,232.154 192.268,232.531 192.268 C 233.017 192.268,233.115 192.463,233.115 193.435 C 233.115 194.408,233.212 194.602,233.698 194.602 C 234.266 194.602,234.440 195.097,234.334 196.408 C 234.313 196.680,234.554 196.984,234.872 197.085 C 235.196 197.188,235.463 197.546,235.482 197.904 C 235.556 199.303,235.612 199.416,236.222 199.396 C 236.725 199.380,236.825 199.512,236.726 200.059 C 236.573 200.901,237.072 201.896,237.647 201.896 C 237.951 201.896,238.074 202.233,238.074 203.063 C 238.074 204.036,238.172 204.230,238.658 204.230 C 239.149 204.230,239.242 204.426,239.245 205.470 C 239.251 207.133,239.516 208.023,240.005 208.023 C 240.294 208.023,240.408 208.432,240.408 209.466 C 240.408 210.566,240.544 211.002,240.979 211.308 C 241.338 211.559,241.577 212.107,241.622 212.783 C 241.677 213.596,241.822 213.858,242.219 213.858 C 242.644 213.858,242.749 214.118,242.776 215.244 C 242.829 217.408,242.857 217.508,243.399 217.465 C 243.815 217.432,243.914 217.676,243.934 218.778 C 243.972 220.912,244.071 221.400,244.578 221.960 C 244.839 222.248,245.112 223.137,245.186 223.934 C 245.259 224.731,245.330 225.489,245.344 225.619 C 245.357 225.749,245.502 225.773,245.665 225.672 C 245.828 225.571,245.873 225.333,245.764 225.144 C 245.655 224.954,245.678 224.901,245.814 225.024 C 246.108 225.291,246.219 225.883,246.483 228.569 C 246.621 229.977,246.814 230.632,247.119 230.732 C 247.503 230.858,247.505 230.807,247.135 230.317 C 246.749 229.806,246.753 229.796,247.193 230.197 C 247.560 230.531,247.686 231.242,247.728 233.211 C 247.778 235.567,247.829 235.775,248.326 235.645 C 248.824 235.515,248.872 235.720,248.906 238.102 C 248.953 241.477,248.945 241.436,249.533 241.389 C 249.975 241.354,250.041 241.685,250.073 244.088 C 250.119 247.569,250.118 247.557,250.523 247.557 C 251.136 247.557,251.180 247.830,251.221 251.907 C 251.258 255.608,251.307 255.953,251.816 256.086 C 252.391 256.237,252.414 256.528,252.501 264.721 C 252.512 265.713,252.667 266.240,253.027 266.503 C 253.499 266.849,253.538 267.806,253.538 279.317 L 253.538 291.758 296.426 291.758 L 339.314 291.758 339.311 281.036 C 339.308 272.480,339.220 269.989,338.874 268.709 C 338.612 267.735,338.374 265.039,338.269 261.853 C 338.154 258.334,337.956 256.226,337.670 255.464 C 337.435 254.839,337.172 253.001,337.087 251.379 C 337.001 249.758,336.738 247.919,336.502 247.292 C 336.266 246.665,335.965 244.598,335.833 242.697 C 335.701 240.797,335.439 239.056,335.250 238.828 C 335.061 238.601,334.792 237.321,334.652 235.984 C 334.511 234.646,334.207 233.093,333.976 232.531 C 333.745 231.969,333.478 230.521,333.381 229.312 C 333.284 228.103,333.019 226.724,332.791 226.248 C 332.563 225.772,332.288 224.545,332.179 223.520 C 332.071 222.496,331.805 221.380,331.587 221.040 C 331.370 220.701,331.097 219.635,330.981 218.673 C 330.864 217.710,330.587 216.643,330.364 216.302 C 330.142 215.962,329.882 214.977,329.788 214.114 C 329.694 213.251,329.425 212.238,329.190 211.863 C 328.956 211.488,328.691 210.437,328.603 209.529 C 328.515 208.621,328.257 207.664,328.031 207.404 C 327.805 207.143,327.518 206.280,327.392 205.484 C 327.266 204.689,326.943 203.724,326.674 203.340 C 326.405 202.956,326.185 202.277,326.185 201.830 C 326.185 201.384,325.923 200.529,325.602 199.930 C 325.281 199.332,325.017 198.446,325.016 197.962 C 325.015 197.478,324.754 196.689,324.435 196.207 C 324.116 195.726,323.854 195.002,323.853 194.598 C 323.852 194.195,323.598 193.392,323.288 192.814 C 322.979 192.237,322.637 191.291,322.528 190.714 C 322.420 190.136,322.155 189.517,321.939 189.337 C 321.723 189.158,321.459 188.436,321.354 187.732 C 321.248 187.028,320.983 186.303,320.764 186.122 C 320.545 185.940,320.280 185.312,320.175 184.726 C 320.070 184.141,319.799 183.448,319.571 183.187 C 319.344 182.926,319.078 182.204,318.980 181.583 C 318.882 180.961,318.560 180.139,318.263 179.756 C 317.967 179.374,317.724 178.804,317.724 178.490 C 317.724 178.175,317.462 177.585,317.141 177.177 C 316.820 176.769,316.557 176.249,316.557 176.021 C 316.557 175.794,316.306 175.122,315.999 174.529 C 314.791 172.194,313.931 170.210,313.931 169.757 C 313.931 169.496,313.751 169.213,313.531 169.128 C 313.310 169.044,313.044 168.518,312.939 167.959 C 312.835 167.401,312.564 166.791,312.338 166.603 C 312.112 166.415,311.839 165.863,311.732 165.377 C 311.625 164.890,311.289 164.243,310.984 163.938 C 310.680 163.634,310.430 163.138,310.430 162.837 C 310.430 162.535,310.240 162.131,310.008 161.938 C 309.775 161.745,309.437 161.138,309.256 160.589 C 309.074 160.041,308.825 159.592,308.701 159.592 C 308.578 159.592,308.264 159.099,308.005 158.497 C 307.745 157.896,307.397 157.174,307.231 156.893 C 306.523 155.696,306.308 155.300,305.762 154.194 C 305.119 152.890,304.979 152.657,303.215 149.942 C 302.530 148.887,301.969 147.935,301.969 147.827 C 301.969 147.718,301.707 147.367,301.386 147.046 C 301.065 146.725,300.802 146.206,300.802 145.893 C 300.802 145.580,300.633 145.219,300.426 145.091 C 300.220 144.963,299.632 144.201,299.121 143.399 C 298.610 142.597,298.024 141.748,297.819 141.513 C 297.615 141.278,297.316 140.863,297.155 140.591 C 296.995 140.318,296.411 139.460,295.857 138.684 C 295.023 137.514,294.810 136.897,294.614 135.084 C 294.290 132.096,294.307 132.196,294.116 132.217 C 293.486 132.285,293.217 132.087,293.217 131.555 C 293.217 131.190,292.982 130.883,292.633 130.792 C 292.310 130.708,292.050 130.394,292.050 130.090 C 292.050 129.788,291.951 129.556,291.831 129.575 C 291.186 129.677,290.883 129.479,290.883 128.957 C 290.883 128.636,290.590 128.080,290.232 127.722 C 289.873 127.364,289.578 126.872,289.575 126.628 C 289.572 126.385,289.340 126.204,289.059 126.226 C 288.707 126.254,288.549 126.055,288.549 125.586 C 288.549 125.063,288.414 124.932,287.965 125.018 C 287.432 125.121,287.218 124.742,287.347 123.924 C 287.366 123.804,287.150 123.705,286.867 123.705 C 286.584 123.705,286.218 123.410,286.054 123.049 C 285.890 122.688,285.596 122.425,285.401 122.465 C 285.207 122.505,285.047 122.290,285.047 121.986 C 285.047 121.467,284.320 120.922,283.786 121.040 C 283.653 121.070,283.632 120.953,283.739 120.781 C 283.874 120.562,284.058 120.572,284.351 120.815 C 284.690 121.097,284.734 121.072,284.585 120.683 C 284.484 120.420,284.227 120.204,284.015 120.204 C 283.802 120.204,283.545 119.942,283.443 119.621 C 283.341 119.300,283.078 119.037,282.859 119.037 C 282.640 119.037,282.378 118.775,282.276 118.454 C 282.174 118.133,281.912 117.870,281.693 117.870 C 281.474 117.870,281.253 117.580,281.202 117.226 C 281.151 116.871,280.846 116.510,280.525 116.423 C 280.204 116.337,279.942 116.069,279.942 115.828 C 279.942 115.587,279.775 115.424,279.571 115.465 C 279.366 115.507,279.071 115.203,278.915 114.791 C 278.758 114.379,278.497 114.124,278.335 114.224 C 278.174 114.324,277.963 114.202,277.867 113.952 C 277.771 113.702,277.576 113.569,277.434 113.657 C 277.293 113.744,277.262 113.594,277.366 113.323 C 277.495 112.985,277.430 112.872,277.157 112.963 C 276.938 113.036,276.441 112.759,276.053 112.347 C 275.664 111.935,275.527 111.860,275.748 112.181 C 276.110 112.708,276.102 112.728,275.667 112.388 C 275.402 112.181,275.105 111.694,275.008 111.306 C 274.877 110.786,274.565 110.552,273.812 110.411 C 273.076 110.272,272.794 110.067,272.794 109.668 C 272.794 109.312,272.588 109.117,272.210 109.117 C 271.821 109.117,271.627 108.923,271.627 108.534 C 271.627 108.145,271.432 107.950,271.043 107.950 C 270.654 107.950,270.460 107.756,270.460 107.367 C 270.460 106.978,270.265 106.783,269.876 106.783 C 269.487 106.783,269.292 106.589,269.292 106.200 C 269.292 105.774,269.098 105.616,268.572 105.616 C 268.052 105.616,267.899 105.495,268.020 105.179 C 268.125 104.904,268.017 104.741,267.731 104.741 C 267.479 104.741,266.917 104.380,266.481 103.939 C 266.045 103.497,265.810 103.340,265.958 103.588 C 266.123 103.862,266.039 103.833,265.745 103.515 C 265.478 103.226,265.052 102.991,264.796 102.991 C 264.527 102.991,264.333 102.746,264.333 102.407 C 264.333 102.086,264.234 101.839,264.114 101.858 C 263.521 101.952,263.220 101.772,263.081 101.240 C 262.997 100.919,262.777 100.656,262.592 100.656 C 262.407 100.656,262.336 100.786,262.434 100.945 C 262.534 101.106,262.425 101.162,262.188 101.071 C 261.955 100.981,261.702 100.668,261.625 100.375 C 261.545 100.070,261.099 99.758,260.575 99.643 C 259.955 99.507,259.664 99.271,259.664 98.902 C 259.664 98.529,259.416 98.333,258.862 98.269 C 258.408 98.217,258.060 97.997,258.060 97.763 C 258.060 97.536,257.877 97.289,257.655 97.215 C 257.379 97.123,257.322 97.208,257.478 97.482 C 257.664 97.807,257.632 97.815,257.315 97.520 C 257.099 97.319,256.686 97.155,256.397 97.155 C 256.066 97.155,255.872 96.939,255.872 96.572 C 255.872 96.086,255.677 95.988,254.705 95.988 C 253.715 95.988,253.538 95.896,253.538 95.377 C 253.538 95.012,253.303 94.705,252.954 94.614 C 252.633 94.530,252.371 94.294,252.371 94.089 C 252.371 93.634,251.720 93.363,250.629 93.363 C 250.028 93.363,249.820 93.227,249.850 92.852 C 249.889 92.359,249.755 92.302,248.379 92.229 C 248.017 92.210,247.662 91.943,247.557 91.612 C 247.413 91.159,247.115 91.028,246.224 91.028 C 245.271 91.028,245.077 90.930,245.077 90.445 C 245.077 89.959,244.882 89.861,243.910 89.861 C 242.835 89.861,242.589 89.667,242.708 88.913 C 242.727 88.793,242.217 88.694,241.575 88.694 C 240.733 88.694,240.408 88.573,240.408 88.257 C 240.408 88.016,240.310 87.804,240.190 87.786 C 240.069 87.769,239.533 87.704,238.998 87.642 C 238.462 87.581,237.804 87.259,237.536 86.927 C 237.203 86.516,236.627 86.292,235.737 86.226 C 234.822 86.158,234.399 85.988,234.333 85.661 C 234.222 85.111,233.702 85.027,233.689 85.558 C 233.684 85.760,233.548 85.695,233.383 85.412 C 233.184 85.071,232.726 84.902,232.003 84.902 C 231.237 84.902,230.814 84.731,230.556 84.318 C 230.264 83.850,229.876 83.735,228.590 83.735 C 227.415 83.735,226.988 83.626,226.988 83.328 C 226.988 82.753,226.330 82.568,224.265 82.563 C 222.492 82.559,221.641 82.307,221.733 81.813 C 221.759 81.674,221.620 81.508,221.425 81.443 C 221.193 81.365,221.154 81.463,221.314 81.727 C 221.510 82.053,221.472 82.062,221.119 81.776 C 220.861 81.568,219.494 81.388,217.781 81.339 C 215.215 81.264,214.884 81.195,214.921 80.739 C 214.960 80.250,186.528 79.901,186.397 80.390 " stroke="none" fill="#d3d3fb" fill-rule="evenodd"></path><path id="path1" d="M0.000 4.498 C 0.000 7.117,0.117 9.036,0.281 9.093 C 0.438 9.148,0.579 10.829,0.602 12.909 C 0.625 14.985,0.757 16.557,0.902 16.468 C 1.044 16.380,1.073 16.535,0.967 16.812 C 0.820 17.196,0.888 17.271,1.259 17.129 C 1.525 17.027,1.730 17.037,1.712 17.151 C 1.590 17.974,1.788 24.567,1.931 24.424 C 2.536 23.820,2.895 25.229,2.948 28.413 C 2.979 30.277,3.104 31.802,3.225 31.802 C 3.347 31.802,3.381 32.052,3.301 32.359 C 3.202 32.738,3.326 32.948,3.691 33.019 C 4.166 33.110,4.232 33.467,4.276 36.182 C 4.332 39.636,4.395 40.286,4.658 40.123 C 5.314 39.718,5.522 40.680,5.561 44.288 C 5.597 47.698,5.665 48.192,6.146 48.529 C 6.617 48.859,6.702 49.381,6.774 52.391 C 6.847 55.498,6.911 55.867,7.367 55.831 C 7.810 55.796,8.214 61.177,7.912 63.093 C 7.893 63.213,8.140 63.311,8.461 63.311 C 9.007 63.311,9.369 67.992,9.056 70.992 C 9.022 71.313,9.240 71.586,9.606 71.682 C 10.159 71.827,10.544 75.912,10.238 78.388 C 10.215 78.576,10.462 78.815,10.787 78.918 C 11.314 79.085,11.746 83.968,11.403 85.880 C 11.294 86.489,11.752 87.267,12.134 87.120 C 12.504 86.978,12.802 90.636,12.595 92.779 C 12.515 93.614,12.850 94.530,13.237 94.530 C 13.626 94.530,14.004 97.876,14.004 101.312 C 14.004 102.508,14.104 102.779,14.588 102.906 C 15.132 103.048,15.171 103.304,15.171 106.703 C 15.171 109.787,15.237 110.322,15.600 110.183 C 16.264 109.927,16.316 110.221,16.356 114.460 C 16.389 118.093,16.440 118.447,16.949 118.608 C 17.457 118.769,17.827 123.159,17.522 125.406 C 17.493 125.619,17.740 125.864,18.071 125.950 C 18.638 126.098,18.673 126.317,18.673 129.720 C 18.673 132.909,18.739 133.400,19.240 133.900 C 19.725 134.386,19.820 134.963,19.896 137.912 C 19.958 140.291,20.091 141.357,20.326 141.357 C 20.931 141.357,20.981 141.622,21.026 145.079 C 21.065 148.143,21.125 148.503,21.621 148.661 C 22.158 148.831,22.441 151.380,22.220 154.048 C 22.086 155.663,22.484 157.277,22.995 157.193 C 23.431 157.121,23.496 157.533,23.568 160.843 C 23.613 162.896,23.751 164.513,23.874 164.437 C 24.579 164.001,24.778 164.910,24.816 168.754 C 24.854 172.457,24.903 172.802,25.412 172.935 C 25.918 173.068,25.966 173.386,25.966 176.575 C 25.966 179.808,26.010 180.080,26.542 180.220 C 27.074 180.359,27.124 180.670,27.198 184.350 C 27.271 187.933,27.330 188.326,27.790 188.289 C 28.252 188.252,28.301 188.608,28.301 192.026 C 28.301 194.104,28.405 195.739,28.533 195.660 C 29.202 195.247,29.415 196.147,29.511 199.805 C 29.597 203.074,29.694 203.753,30.117 204.062 C 30.537 204.369,30.626 204.967,30.656 207.685 C 30.676 209.549,30.811 210.941,30.972 210.941 C 31.126 210.941,31.171 211.072,31.072 211.233 C 30.973 211.393,31.097 211.524,31.347 211.524 C 31.681 211.524,31.812 211.853,31.842 212.764 C 31.864 213.446,31.910 214.923,31.945 216.047 C 32.031 218.765,32.147 219.308,32.740 219.754 C 33.160 220.070,33.249 220.694,33.284 223.595 C 33.323 226.724,33.380 227.074,33.877 227.204 C 34.374 227.334,34.428 227.661,34.432 230.596 C 34.436 233.831,34.653 234.829,35.270 234.448 C 35.502 234.304,35.594 235.443,35.594 238.461 C 35.594 242.429,35.628 242.683,36.178 242.827 C 36.721 242.969,36.761 243.225,36.761 246.508 C 36.761 249.826,36.796 250.036,37.337 250.036 C 37.879 250.036,37.917 250.278,37.993 254.194 C 38.067 257.946,38.124 258.348,38.585 258.311 C 39.040 258.275,39.099 258.608,39.127 261.375 C 39.168 265.522,39.184 265.657,39.614 265.570 C 40.156 265.460,40.217 265.832,40.342 269.990 C 40.435 273.078,40.543 273.814,40.943 274.106 C 41.304 274.370,41.430 274.915,41.430 276.211 C 41.430 279.776,41.751 281.607,42.349 281.450 C 42.853 281.318,42.888 281.554,42.888 285.051 C 42.888 289.025,43.001 289.716,43.649 289.716 C 43.919 289.716,44.055 290.058,44.055 290.737 L 44.055 291.758 51.887 291.758 L 59.718 291.758 59.910 286.022 C 60.016 282.867,60.113 278.698,60.127 276.758 C 60.140 274.818,60.272 272.443,60.420 271.481 C 60.568 270.518,60.872 266.842,61.096 263.311 C 61.320 259.781,61.643 256.565,61.813 256.163 C 61.984 255.762,62.251 253.703,62.406 251.587 C 62.561 249.471,62.836 247.462,63.017 247.123 C 63.199 246.784,63.459 245.168,63.595 243.531 C 63.731 241.894,64.051 240.066,64.306 239.470 C 64.561 238.873,64.770 237.790,64.770 237.064 C 64.770 236.337,65.021 234.987,65.327 234.064 C 65.633 233.141,65.956 231.592,66.045 230.623 C 66.134 229.654,66.409 228.379,66.656 227.788 C 66.902 227.198,67.104 226.214,67.104 225.602 C 67.104 224.990,67.310 223.771,67.561 222.894 C 67.812 222.016,68.149 220.445,68.309 219.402 C 68.469 218.359,68.778 217.232,68.994 216.898 C 69.211 216.563,69.479 215.644,69.591 214.855 C 69.702 214.066,69.965 213.147,70.174 212.813 C 70.384 212.479,70.646 211.560,70.758 210.771 C 70.869 209.982,71.145 209.042,71.372 208.682 C 71.598 208.322,71.865 207.403,71.965 206.640 C 72.065 205.876,72.391 204.765,72.689 204.169 C 72.987 203.574,73.234 202.720,73.238 202.273 C 73.241 201.825,73.504 200.886,73.821 200.187 C 74.139 199.487,74.398 198.566,74.398 198.140 C 74.398 197.714,74.642 196.908,74.939 196.349 C 75.236 195.789,75.568 194.853,75.676 194.267 C 75.784 193.681,76.066 193.042,76.302 192.846 C 76.539 192.649,76.732 192.207,76.732 191.864 C 76.732 191.520,76.977 190.781,77.277 190.222 C 77.576 189.663,77.919 188.745,78.039 188.184 C 78.158 187.622,78.424 186.966,78.629 186.725 C 78.834 186.484,79.096 185.828,79.212 185.266 C 79.328 184.705,79.591 184.048,79.796 183.807 C 80.001 183.567,80.266 182.910,80.386 182.349 C 80.505 181.787,80.848 180.870,81.148 180.311 C 81.447 179.751,81.692 179.014,81.692 178.672 C 81.692 178.331,81.955 177.717,82.276 177.309 C 82.597 176.901,82.859 176.370,82.859 176.130 C 82.859 175.656,84.208 172.851,84.778 172.137 C 84.971 171.896,85.217 171.284,85.325 170.776 C 85.432 170.268,85.693 169.786,85.904 169.705 C 86.114 169.624,86.376 169.081,86.485 168.498 C 86.595 167.915,86.861 167.370,87.077 167.288 C 87.293 167.205,87.552 166.700,87.652 166.165 C 87.753 165.631,88.015 165.044,88.236 164.861 C 88.457 164.677,88.726 164.172,88.834 163.737 C 88.943 163.302,89.202 162.750,89.410 162.509 C 89.618 162.268,89.946 161.579,90.139 160.977 C 90.332 160.376,90.591 159.883,90.713 159.883 C 90.836 159.883,91.093 159.358,91.286 158.716 C 91.478 158.074,91.741 157.549,91.869 157.549 C 91.998 157.549,92.260 157.024,92.453 156.382 C 92.645 155.740,92.918 155.215,93.060 155.215 C 93.201 155.215,93.472 154.746,93.661 154.174 C 93.850 153.601,94.188 153.062,94.413 152.975 C 94.638 152.889,94.821 152.629,94.821 152.398 C 94.821 152.167,95.322 151.224,95.933 150.304 C 96.545 149.383,97.119 148.437,97.210 148.202 C 97.403 147.706,99.892 143.893,100.434 143.264 C 100.846 142.786,101.267 142.102,102.011 140.700 C 102.288 140.179,102.625 139.752,102.760 139.752 C 102.895 139.752,103.136 139.457,103.295 139.096 C 103.455 138.735,103.967 137.848,104.432 137.126 C 105.571 135.361,105.822 126.407,104.741 126.124 C 104.206 125.984,104.155 125.710,104.121 122.796 C 104.075 118.780,104.092 118.884,103.494 118.932 C 103.045 118.968,102.987 118.597,102.954 115.504 C 102.934 113.596,102.885 111.904,102.845 111.743 C 102.805 111.583,102.755 111.255,102.735 111.014 C 102.715 110.773,102.502 110.576,102.261 110.576 C 101.857 110.576,101.567 106.084,101.818 103.720 C 101.853 103.399,101.786 103.229,101.671 103.341 C 101.045 103.955,100.711 102.607,100.613 99.079 C 100.527 95.968,100.428 95.297,100.007 94.989 C 99.589 94.684,99.497 94.093,99.467 91.511 C 99.448 89.801,99.311 88.327,99.164 88.236 C 99.017 88.145,98.972 87.948,99.064 87.799 C 99.157 87.650,99.042 87.527,98.809 87.527 C 98.239 87.527,97.995 86.410,98.215 84.807 C 98.513 82.629,98.100 80.233,97.426 80.233 C 96.914 80.233,96.516 74.848,96.847 72.406 C 96.876 72.193,96.629 71.948,96.298 71.862 C 95.761 71.721,95.318 66.611,95.674 64.662 C 95.700 64.521,95.522 64.483,95.280 64.576 C 94.602 64.836,94.552 64.556,94.512 60.303 C 94.479 56.670,94.428 56.316,93.919 56.155 C 93.405 55.992,93.038 51.535,93.356 49.307 C 93.390 49.066,93.324 48.962,93.210 49.074 C 92.558 49.715,92.217 48.341,92.176 44.906 C 92.129 41.014,92.051 40.554,91.435 40.554 C 91.066 40.554,90.788 36.228,91.017 34.041 C 91.050 33.720,90.833 33.446,90.467 33.351 C 89.916 33.207,89.859 32.965,89.833 30.673 C 89.784 26.433,89.702 25.721,89.201 25.168 C 88.835 24.763,88.669 23.768,88.516 21.067 C 88.345 18.029,88.246 17.511,87.848 17.576 C 87.444 17.641,87.370 17.150,87.300 13.931 C 87.223 10.452,87.181 10.212,86.643 10.212 C 86.119 10.212,85.715 4.866,86.052 2.384 C 86.081 2.171,85.834 1.926,85.503 1.840 C 85.071 1.727,84.902 1.446,84.902 0.841 L 84.902 0.000 42.451 0.000 L 0.000 0.000 0.000 4.498 M315.098 1.021 C 315.098 1.699,314.962 2.042,314.692 2.042 C 314.048 2.042,313.931 2.731,313.931 6.554 C 313.931 9.915,313.894 10.153,313.340 10.298 C 313.014 10.383,312.767 10.563,312.791 10.697 C 313.128 12.612,312.699 17.454,312.181 17.590 C 311.697 17.717,311.597 17.988,311.597 19.184 C 311.597 22.620,311.219 25.966,310.830 25.966 C 310.439 25.966,310.046 26.999,310.151 27.751 C 310.415 29.642,310.097 33.260,309.667 33.260 C 309.339 33.260,309.242 33.438,309.348 33.844 C 309.432 34.165,309.395 34.427,309.267 34.427 C 309.138 34.427,309.013 36.031,308.990 37.992 C 308.949 41.382,308.732 42.260,308.037 41.831 C 307.909 41.752,307.805 43.320,307.805 45.315 C 307.805 48.371,307.727 49.007,307.311 49.344 C 306.890 49.685,306.854 49.684,307.064 49.335 C 307.232 49.057,307.203 48.992,306.974 49.133 C 306.747 49.274,306.637 50.605,306.637 53.229 C 306.637 56.871,306.601 57.126,306.054 57.269 C 305.511 57.411,305.470 57.667,305.470 60.916 C 305.470 64.165,305.429 64.421,304.887 64.563 C 304.338 64.707,304.303 64.961,304.303 68.828 C 304.303 72.883,304.250 73.115,303.355 72.974 C 303.235 72.955,303.136 74.581,303.136 76.586 C 303.136 79.928,303.092 80.233,302.602 80.233 C 301.973 80.233,301.953 80.341,301.872 84.274 C 301.820 86.810,301.725 87.355,301.279 87.680 C 300.698 88.106,300.581 88.979,300.538 93.256 C 300.513 95.695,300.459 95.934,299.905 96.079 C 299.539 96.174,299.322 96.447,299.355 96.769 C 299.609 99.196,299.307 103.282,298.875 103.282 C 298.571 103.282,298.467 103.442,298.580 103.735 C 298.679 103.995,298.630 104.112,298.465 104.010 C 298.281 103.896,298.177 105.193,298.177 107.607 C 298.177 111.138,298.139 111.393,297.593 111.536 C 297.051 111.678,297.009 111.934,297.009 115.147 C 297.009 118.289,296.956 118.638,296.426 118.969 C 295.889 119.305,295.842 119.650,295.842 123.270 C 295.842 126.934,295.804 127.206,295.292 127.206 C 294.031 127.206,294.626 135.776,295.970 136.980 C 296.149 137.141,296.715 137.929,297.228 138.731 C 297.741 139.533,298.329 140.382,298.534 140.617 C 298.738 140.851,299.037 141.267,299.198 141.539 C 299.358 141.812,299.916 142.644,300.438 143.388 C 300.959 144.132,301.386 144.846,301.386 144.973 C 301.386 145.101,301.645 145.440,301.962 145.726 C 302.279 146.013,302.621 146.509,302.722 146.829 C 302.824 147.149,303.389 148.149,303.978 149.052 C 305.552 151.464,305.730 151.764,306.222 152.838 C 306.469 153.376,306.801 153.967,306.961 154.151 C 307.277 154.514,307.751 155.392,309.380 158.628 C 309.962 159.784,310.557 160.803,310.703 160.893 C 310.849 160.983,311.055 161.449,311.160 161.929 C 311.266 162.409,311.459 162.801,311.589 162.801 C 311.719 162.801,312.044 163.293,312.310 163.895 C 312.576 164.497,312.982 165.317,313.212 165.718 C 313.443 166.120,313.633 166.662,313.635 166.923 C 313.638 167.184,313.837 167.561,314.077 167.761 C 314.318 167.961,314.515 168.270,314.515 168.449 C 314.515 168.627,314.857 169.498,315.274 170.382 C 315.692 171.267,316.298 172.582,316.623 173.304 C 316.947 174.026,317.458 175.103,317.760 175.696 C 318.061 176.289,318.308 176.961,318.308 177.188 C 318.308 177.416,318.570 177.936,318.891 178.344 C 319.212 178.752,319.475 179.329,319.475 179.627 C 319.475 179.925,319.728 180.642,320.038 181.219 C 320.347 181.797,320.689 182.742,320.798 183.320 C 320.906 183.898,321.171 184.517,321.387 184.696 C 321.604 184.875,321.867 185.598,321.972 186.302 C 322.078 187.006,322.343 187.730,322.562 187.912 C 322.781 188.094,323.046 188.722,323.151 189.307 C 323.256 189.893,323.528 190.585,323.755 190.846 C 323.982 191.107,324.250 191.829,324.351 192.451 C 324.451 193.073,324.773 193.975,325.067 194.457 C 325.360 194.938,325.600 195.693,325.601 196.135 C 325.601 196.577,325.864 197.429,326.185 198.027 C 326.506 198.626,326.769 199.448,326.769 199.854 C 326.769 200.260,327.031 201.082,327.352 201.681 C 327.673 202.280,327.936 203.133,327.936 203.577 C 327.936 204.022,328.178 204.843,328.475 205.402 C 328.772 205.961,329.103 206.986,329.211 207.679 C 329.319 208.372,329.588 209.226,329.808 209.576 C 330.028 209.925,330.300 210.990,330.412 211.941 C 330.525 212.893,330.797 213.946,331.016 214.281 C 331.236 214.617,331.507 215.676,331.618 216.636 C 331.729 217.596,332.000 218.660,332.221 219.000 C 332.442 219.341,332.702 220.326,332.800 221.188 C 332.898 222.051,333.164 223.128,333.393 223.581 C 333.622 224.035,333.884 225.348,333.976 226.499 C 334.068 227.650,334.324 228.950,334.544 229.387 C 334.764 229.823,335.055 231.273,335.191 232.609 C 335.326 233.944,335.598 235.339,335.796 235.708 C 335.994 236.077,336.279 237.696,336.430 239.304 C 336.582 240.913,336.843 242.485,337.010 242.798 C 337.177 243.110,337.426 244.853,337.563 246.672 C 337.700 248.490,338.003 250.549,338.236 251.247 C 338.470 251.945,338.756 254.289,338.872 256.455 C 338.988 258.621,339.278 261.247,339.516 262.290 C 339.851 263.759,339.984 267.294,340.106 277.972 L 340.263 291.758 348.104 291.758 L 355.945 291.758 355.945 290.917 C 355.945 290.317,356.114 290.031,356.536 289.921 C 356.862 289.835,357.109 289.656,357.085 289.522 C 356.765 287.703,357.176 282.473,357.649 282.349 C 358.248 282.193,358.564 280.033,358.568 276.085 C 358.570 274.241,358.631 274.002,359.056 274.165 C 359.368 274.285,359.471 274.237,359.343 274.030 C 359.234 273.854,359.259 273.638,359.399 273.552 C 359.539 273.465,359.676 271.991,359.704 270.276 C 359.744 267.774,359.848 267.088,360.228 266.810 C 360.520 266.596,360.612 266.317,360.466 266.082 C 360.305 265.821,360.345 265.772,360.591 265.924 C 360.833 266.074,360.933 265.968,360.895 265.604 C 360.581 262.642,360.938 258.497,361.506 258.497 C 361.905 258.497,362.091 258.325,362.056 257.987 C 361.762 255.096,362.108 251.262,362.677 251.113 C 363.043 251.017,363.261 250.744,363.227 250.423 C 362.926 247.546,363.277 243.061,363.816 242.890 C 364.134 242.789,364.381 242.616,364.365 242.506 C 364.060 240.366,364.476 235.757,364.989 235.594 C 365.536 235.421,365.573 235.153,365.573 231.344 C 365.573 227.474,365.600 227.279,366.156 227.279 C 366.709 227.279,366.740 227.085,366.740 223.514 C 366.740 219.951,366.770 219.756,367.297 219.894 C 367.874 220.045,368.303 217.796,368.142 215.463 C 367.970 212.959,368.192 211.566,368.796 211.374 C 369.125 211.270,369.372 210.965,369.346 210.698 C 369.081 207.999,369.405 204.288,369.919 204.154 C 370.420 204.023,370.476 203.683,370.512 200.571 C 370.546 197.689,370.633 197.073,371.053 196.767 C 371.471 196.462,371.570 195.786,371.651 192.685 C 371.741 189.270,372.084 187.791,372.654 188.361 C 372.736 188.443,372.823 186.968,372.847 185.083 C 372.886 182.041,372.955 181.612,373.462 181.257 C 373.981 180.893,374.034 180.498,374.034 176.935 C 374.034 173.207,374.062 173.012,374.617 173.012 C 375.169 173.012,375.201 172.818,375.201 169.399 C 375.201 166.032,375.240 165.776,375.784 165.634 C 376.333 165.490,376.368 165.236,376.368 161.369 C 376.368 157.484,376.399 157.257,376.938 157.257 C 377.537 157.257,377.899 156.127,377.778 154.632 C 377.584 152.213,377.840 149.695,378.264 149.858 C 378.549 149.967,378.719 149.837,378.752 149.484 C 378.779 149.186,378.831 148.745,378.866 148.505 C 378.902 148.264,378.945 146.590,378.962 144.785 C 378.992 141.684,379.026 141.503,379.590 141.503 C 379.918 141.503,380.165 141.338,380.139 141.138 C 379.842 138.855,380.212 134.523,380.717 134.363 C 381.226 134.201,381.277 133.848,381.310 130.215 C 381.347 126.270,381.438 125.601,381.901 125.887 C 382.345 126.162,382.495 125.138,382.495 121.817 C 382.495 118.855,382.547 118.523,383.005 118.559 C 383.461 118.595,383.525 118.224,383.603 115.098 C 383.675 112.213,383.777 111.531,384.186 111.219 C 384.783 110.765,384.753 110.991,384.795 106.565 C 384.825 103.339,384.879 102.991,385.350 102.991 C 385.641 102.991,385.885 102.764,385.902 102.480 C 386.259 96.471,386.360 95.697,386.787 95.697 C 387.087 95.697,387.181 95.508,387.078 95.113 C 386.994 94.792,387.055 94.530,387.213 94.530 C 387.371 94.530,387.471 94.103,387.435 93.581 C 387.191 90.040,387.457 87.303,388.060 87.145 C 388.426 87.050,388.643 86.776,388.610 86.455 C 388.384 84.298,388.667 80.288,389.081 79.779 C 389.333 79.467,389.444 79.397,389.327 79.622 C 389.184 79.898,389.229 79.961,389.466 79.815 C 389.659 79.696,389.795 79.380,389.769 79.113 C 389.498 76.352,389.832 71.549,390.292 71.586 C 390.890 71.634,390.873 71.738,390.919 67.722 C 390.953 64.808,391.004 64.534,391.539 64.394 C 392.088 64.250,392.123 63.996,392.123 60.129 C 392.123 56.264,392.205 55.850,392.925 56.090 C 393.045 56.131,393.209 54.457,393.290 52.371 C 393.422 48.918,393.483 48.586,393.963 48.667 C 394.265 48.719,394.468 48.594,394.439 48.375 C 394.162 46.315,394.507 40.263,394.901 40.263 C 395.638 40.263,395.984 38.816,395.826 36.396 C 395.661 33.862,395.802 32.969,396.367 32.969 C 396.912 32.969,397.019 32.349,397.071 28.904 C 397.104 26.652,397.224 25.779,397.531 25.549 C 398.093 25.128,398.202 24.338,398.228 20.528 C 398.247 17.620,398.303 17.283,398.760 17.319 C 399.216 17.355,399.280 16.983,399.361 13.858 C 399.411 11.933,399.575 10.314,399.726 10.260 C 399.883 10.205,400.000 7.989,400.000 5.081 L 400.000 0.000 357.549 0.000 L 315.098 0.000 315.098 1.021 " stroke="none" fill="#444ce4" fill-rule="evenodd"></path><path id="path2" d="M296.599 139.078 C 298.035 141.221,298.452 141.735,297.913 140.697 C 297.385 139.683,295.844 137.453,295.542 137.266 C 295.393 137.175,295.869 137.990,296.599 139.078 M99.324 145.660 C 98.868 146.342,98.374 147.064,98.227 147.265 C 98.080 147.465,98.032 147.629,98.120 147.629 C 98.257 147.629,99.405 146.040,100.175 144.785 C 100.748 143.851,100.059 144.560,99.324 145.660 M301.887 146.973 C 303.149 148.942,303.720 149.737,303.720 149.524 C 303.720 149.239,301.697 146.171,301.509 146.171 C 301.434 146.171,301.604 146.532,301.887 146.973 M95.518 151.869 C 95.252 152.275,95.087 152.661,95.152 152.726 C 95.217 152.790,95.491 152.458,95.761 151.987 C 96.364 150.938,96.185 150.851,95.518 151.869 M94.351 153.911 C 94.085 154.318,93.920 154.703,93.985 154.768 C 94.050 154.833,94.324 154.500,94.594 154.029 C 95.196 152.980,95.018 152.894,94.351 153.911 M309.558 160.321 C 309.559 160.481,309.820 161.007,310.139 161.488 C 310.894 162.629,310.895 162.223,310.140 160.984 C 309.819 160.459,309.558 160.160,309.558 160.321 M88.778 164.781 C 88.430 165.530,88.189 166.185,88.241 166.238 C 88.293 166.290,88.628 165.728,88.986 164.989 C 89.344 164.250,89.585 163.595,89.523 163.532 C 89.460 163.470,89.125 164.032,88.778 164.781 M311.892 164.697 C 311.893 164.858,312.154 165.383,312.473 165.864 C 313.228 167.005,313.229 166.599,312.474 165.361 C 312.153 164.835,311.892 164.537,311.892 164.697 M81.132 181.429 C 80.656 182.320,80.754 182.568,81.284 181.811 C 81.541 181.444,81.683 181.075,81.600 180.992 C 81.516 180.908,81.306 181.105,81.132 181.429 M80.306 183.880 C 79.992 184.738,80.000 184.774,80.388 184.262 C 80.759 183.772,80.978 182.932,80.735 182.932 C 80.690 182.932,80.497 183.359,80.306 183.880 M322.997 190.956 C 322.997 191.116,323.184 191.575,323.414 191.977 C 323.643 192.378,323.831 192.575,323.831 192.414 C 323.831 192.254,323.643 191.794,323.414 191.393 C 323.184 190.992,322.997 190.795,322.997 190.956 M324.154 194.311 C 324.158 194.551,324.354 195.003,324.590 195.315 C 325.141 196.043,325.137 195.773,324.582 194.709 C 324.343 194.249,324.150 194.070,324.154 194.311 M75.321 196.803 C 74.832 197.876,74.925 198.105,75.454 197.130 C 75.701 196.674,75.848 196.247,75.781 196.180 C 75.715 196.113,75.507 196.394,75.321 196.803 M325.332 197.812 C 325.331 198.232,326.154 199.903,326.175 199.523 C 326.181 199.421,325.993 198.896,325.759 198.356 C 325.525 197.816,325.332 197.571,325.332 197.812 M74.337 200.299 C 74.246 200.616,74.084 201.138,73.975 201.459 C 73.866 201.780,73.991 201.673,74.252 201.222 C 74.513 200.772,74.676 200.250,74.614 200.063 C 74.551 199.876,74.427 199.982,74.337 200.299 M326.483 201.500 C 326.480 201.683,326.737 202.405,327.054 203.105 C 327.372 203.804,327.634 204.227,327.638 204.044 C 327.641 203.860,327.384 203.138,327.067 202.439 C 326.750 201.739,326.487 201.317,326.483 201.500 M329.114 209.959 C 329.108 210.141,329.295 210.732,329.529 211.272 C 329.763 211.812,329.960 212.105,329.967 211.923 C 329.973 211.740,329.786 211.150,329.552 210.610 C 329.317 210.070,329.121 209.777,329.114 209.959 M70.361 213.725 C 70.174 214.135,70.027 214.627,70.033 214.820 C 70.040 215.013,70.239 214.725,70.475 214.179 C 70.974 213.030,70.868 212.611,70.361 213.725 M69.194 217.810 C 69.007 218.219,68.860 218.712,68.866 218.905 C 68.873 219.098,69.072 218.809,69.308 218.264 C 69.807 217.115,69.701 216.696,69.194 217.810 M331.448 219.004 C 331.442 219.186,331.629 219.777,331.863 220.317 C 332.098 220.857,332.294 221.149,332.301 220.967 C 332.307 220.785,332.120 220.194,331.886 219.654 C 331.652 219.114,331.455 218.822,331.448 219.004 M332.937 224.945 C 332.937 225.186,333.050 225.646,333.187 225.966 C 333.346 226.334,333.438 226.388,333.438 226.112 C 333.438 225.872,333.325 225.412,333.187 225.091 C 333.029 224.723,332.937 224.669,332.937 224.945 M66.861 229.224 C 66.664 229.963,66.554 230.619,66.617 230.682 C 66.680 230.745,66.900 230.199,67.104 229.468 C 67.309 228.736,67.419 228.080,67.348 228.010 C 67.278 227.939,67.059 228.486,66.861 229.224 M334.104 230.780 C 334.104 231.021,334.217 231.481,334.354 231.802 C 334.513 232.169,334.605 232.223,334.605 231.947 C 334.605 231.707,334.492 231.247,334.354 230.926 C 334.196 230.559,334.104 230.505,334.104 230.780 M64.353 241.450 C 64.246 241.878,64.215 242.284,64.283 242.353 C 64.352 242.422,64.496 242.128,64.604 241.701 C 64.711 241.273,64.742 240.867,64.674 240.798 C 64.605 240.729,64.461 241.023,64.353 241.450 M336.173 242.451 C 336.173 243.012,336.233 243.242,336.306 242.961 C 336.380 242.681,336.380 242.221,336.306 241.940 C 336.233 241.659,336.173 241.889,336.173 242.451 M336.446 244.201 C 336.442 244.602,336.551 245.193,336.689 245.514 L 336.939 246.098 336.931 245.514 C 336.926 245.193,336.817 244.602,336.689 244.201 L 336.455 243.472 336.446 244.201 M63.671 246.827 C 63.671 247.389,63.731 247.619,63.804 247.338 C 63.878 247.057,63.878 246.597,63.804 246.317 C 63.731 246.036,63.671 246.265,63.671 246.827 M63.182 249.323 C 63.072 249.909,63.040 250.446,63.112 250.518 C 63.183 250.589,63.331 250.168,63.441 249.583 C 63.551 248.997,63.582 248.460,63.511 248.388 C 63.440 248.317,63.292 248.738,63.182 249.323 M337.340 250.328 C 337.340 250.890,337.400 251.120,337.473 250.839 C 337.547 250.558,337.547 250.098,337.473 249.818 C 337.400 249.537,337.340 249.767,337.340 250.328 M337.622 252.225 C 337.622 252.546,337.727 253.136,337.856 253.538 C 338.041 254.115,338.089 254.145,338.089 253.683 C 338.089 253.363,337.984 252.772,337.856 252.371 C 337.671 251.793,337.622 251.763,337.622 252.225 M62.520 255.434 C 62.522 256.236,62.578 256.530,62.646 256.086 C 62.713 255.643,62.711 254.986,62.642 254.628 C 62.572 254.269,62.517 254.632,62.520 255.434 M62.010 258.946 C 61.897 259.850,61.865 260.649,61.939 260.724 C 62.013 260.798,62.166 260.119,62.279 259.216 C 62.392 258.312,62.424 257.512,62.350 257.438 C 62.276 257.364,62.123 258.043,62.010 258.946 M338.527 260.248 C 338.527 261.131,338.581 261.492,338.648 261.050 C 338.715 260.609,338.715 259.887,338.648 259.446 C 338.581 259.004,338.527 259.365,338.527 260.248 M61.629 262.290 C 61.629 262.852,61.689 263.082,61.762 262.801 C 61.835 262.520,61.835 262.061,61.762 261.780 C 61.689 261.499,61.629 261.729,61.629 262.290 M338.931 264.770 C 339.021 265.894,339.144 266.867,339.204 266.934 C 339.407 267.158,339.283 265.074,339.024 263.895 C 338.827 262.998,338.805 263.201,338.931 264.770 M61.369 267.688 C 61.370 268.972,61.422 269.460,61.483 268.774 C 61.545 268.088,61.544 267.038,61.481 266.440 C 61.419 265.843,61.368 266.404,61.369 267.688 M339.388 268.271 C 339.391 268.913,339.451 269.141,339.521 268.779 C 339.591 268.416,339.588 267.890,339.515 267.611 C 339.442 267.333,339.385 267.629,339.388 268.271 M60.839 273.822 C 60.724 275.205,60.695 276.402,60.776 276.482 C 60.856 276.562,61.016 275.497,61.131 274.114 C 61.246 272.732,61.275 271.535,61.194 271.455 C 61.114 271.374,60.954 272.440,60.839 273.822 M339.737 280.817 C 339.737 286.112,339.776 288.320,339.824 285.722 C 339.873 283.125,339.873 278.792,339.825 276.094 C 339.776 273.396,339.737 275.522,339.737 280.817 M60.505 281.109 C 60.506 283.034,60.553 283.784,60.610 282.775 C 60.667 281.766,60.667 280.190,60.609 279.274 C 60.551 278.357,60.505 279.183,60.505 281.109 " stroke="none" fill="#9199f4" fill-rule="evenodd"></path><path id="path3" d="M105.373 136.154 C 105.133 137.050,103.701 139.504,101.400 142.958 C 99.421 145.928,96.861 150.000,95.711 152.006 C 94.562 154.012,93.497 155.850,93.346 156.090 C 93.194 156.331,92.940 156.856,92.780 157.257 C 92.620 157.659,92.357 158.184,92.196 158.425 C 92.035 158.665,91.772 159.190,91.612 159.592 C 91.452 159.993,91.190 160.518,91.029 160.759 C 90.868 160.999,90.605 161.524,90.445 161.926 C 90.285 162.327,90.034 162.852,89.886 163.093 C 89.070 164.424,83.151 176.746,83.151 177.114 C 83.151 177.354,82.967 177.813,82.742 178.135 C 82.517 178.456,82.176 179.302,81.984 180.015 C 81.792 180.727,81.451 181.573,81.226 181.895 C 81.001 182.216,80.817 182.724,80.817 183.025 C 80.817 183.326,80.622 183.920,80.383 184.346 C 80.145 184.772,79.762 185.646,79.533 186.287 C 78.404 189.452,78.142 190.146,77.771 190.956 C 77.550 191.437,77.015 192.815,76.581 194.019 C 76.146 195.222,75.608 196.667,75.384 197.228 C 75.160 197.790,74.855 198.840,74.706 199.562 C 74.557 200.284,74.245 201.466,74.013 202.188 C 73.780 202.910,73.307 204.486,72.963 205.689 C 72.618 206.893,72.089 208.731,71.788 209.774 C 71.486 210.817,70.956 212.655,70.609 213.858 C 70.262 215.062,69.736 216.834,69.439 217.797 C 69.143 218.760,68.815 220.204,68.711 221.007 C 68.606 221.809,68.342 223.122,68.124 223.924 C 67.906 224.726,67.644 226.105,67.542 226.988 C 67.440 227.870,67.176 229.183,66.956 229.905 C 66.737 230.627,66.414 232.185,66.239 233.367 C 66.064 234.549,65.807 235.731,65.667 235.993 C 65.527 236.255,65.324 237.257,65.215 238.220 C 65.106 239.183,64.838 240.627,64.618 241.430 C 64.398 242.232,64.082 244.201,63.916 245.806 C 63.750 247.411,63.417 249.643,63.176 250.766 C 62.935 251.889,62.736 253.492,62.733 254.328 C 62.730 255.164,62.474 257.724,62.165 260.017 C 61.855 262.311,61.521 266.287,61.422 268.855 C 61.323 271.422,61.128 274.376,60.987 275.419 C 60.847 276.462,60.674 280.532,60.604 284.464 C 60.509 289.709,60.537 290.680,60.708 288.111 C 60.837 286.185,61.137 281.656,61.376 278.045 C 61.615 274.435,61.820 269.764,61.831 267.667 C 61.846 265.084,61.995 263.436,62.293 262.561 C 62.540 261.836,62.850 259.285,63.001 256.747 C 63.148 254.260,63.475 251.507,63.728 250.629 C 63.980 249.752,64.187 248.074,64.187 246.900 C 64.187 245.634,64.370 244.327,64.638 243.685 C 64.887 243.090,65.206 241.379,65.348 239.883 C 65.489 238.386,65.760 236.975,65.949 236.748 C 66.138 236.520,66.412 235.270,66.557 233.972 C 66.702 232.673,66.998 231.259,67.215 230.831 C 67.432 230.402,67.697 229.039,67.805 227.802 C 67.913 226.565,68.184 225.201,68.407 224.771 C 68.630 224.342,68.906 222.990,69.021 221.769 C 69.135 220.547,69.399 219.285,69.608 218.964 C 69.816 218.643,70.077 217.659,70.188 216.776 C 70.299 215.894,70.568 214.965,70.788 214.712 C 71.007 214.460,71.272 213.607,71.378 212.816 C 71.484 212.025,71.813 210.921,72.109 210.362 C 72.405 209.802,72.648 208.916,72.648 208.391 C 72.648 207.867,72.910 206.948,73.231 206.349 C 73.552 205.750,73.815 204.795,73.815 204.227 C 73.815 203.658,74.019 202.902,74.268 202.545 C 74.518 202.189,74.851 201.098,75.009 200.120 C 75.166 199.142,75.472 198.059,75.689 197.712 C 75.906 197.366,76.173 196.571,76.283 195.946 C 76.393 195.322,76.658 194.635,76.873 194.420 C 77.087 194.206,77.350 193.510,77.458 192.875 C 77.565 192.239,77.830 191.572,78.045 191.393 C 78.261 191.214,78.529 190.525,78.641 189.862 C 78.753 189.198,79.026 188.474,79.247 188.253 C 79.469 188.032,79.732 187.337,79.832 186.710 C 79.932 186.082,80.196 185.418,80.418 185.234 C 80.640 185.050,80.903 184.393,81.002 183.775 C 81.101 183.157,81.359 182.504,81.575 182.325 C 81.791 182.145,82.054 181.519,82.158 180.933 C 82.262 180.348,82.593 179.459,82.895 178.959 C 83.196 178.459,83.443 177.757,83.443 177.400 C 83.443 177.043,83.705 176.418,84.026 176.010 C 84.347 175.602,84.610 175.041,84.610 174.763 C 84.610 174.485,84.872 173.924,85.193 173.516 C 85.514 173.108,85.777 172.583,85.777 172.349 C 85.777 172.115,86.031 171.601,86.342 171.205 C 86.653 170.810,86.994 170.141,87.100 169.719 C 87.206 169.297,87.468 168.806,87.683 168.628 C 87.898 168.450,88.163 167.894,88.274 167.392 C 88.384 166.891,88.655 166.300,88.875 166.079 C 89.096 165.858,89.363 165.326,89.468 164.896 C 89.573 164.466,89.901 163.801,90.198 163.418 C 90.494 163.035,90.737 162.531,90.737 162.297 C 90.737 162.063,90.999 161.538,91.320 161.130 C 91.641 160.722,91.904 160.197,91.904 159.963 C 91.904 159.729,92.166 159.204,92.487 158.796 C 92.808 158.388,93.071 157.863,93.071 157.629 C 93.071 157.395,93.333 156.870,93.654 156.462 C 93.975 156.054,94.238 155.561,94.238 155.367 C 94.238 155.173,94.493 154.783,94.805 154.501 C 95.117 154.219,95.455 153.607,95.557 153.143 C 95.659 152.678,95.862 152.298,96.008 152.298 C 96.153 152.298,96.476 151.871,96.724 151.349 C 96.973 150.828,97.499 149.876,97.893 149.234 C 98.287 148.592,98.810 147.640,99.054 147.119 C 99.298 146.597,99.594 146.168,99.712 146.165 C 99.830 146.162,100.321 145.499,100.802 144.692 C 101.284 143.885,101.907 142.949,102.188 142.611 C 102.469 142.273,102.699 141.895,102.699 141.771 C 102.699 141.646,102.879 141.364,103.099 141.144 C 103.318 140.925,103.716 140.324,103.981 139.811 C 104.247 139.297,104.571 138.877,104.702 138.877 C 105.002 138.877,106.020 135.566,105.864 135.098 C 105.800 134.907,105.580 135.382,105.373 136.154 M294.700 136.221 C 294.687 136.605,295.168 137.636,295.770 138.512 C 296.371 139.388,296.995 140.325,297.155 140.595 C 297.316 140.865,297.615 141.278,297.819 141.513 C 298.024 141.748,298.610 142.597,299.121 143.399 C 299.632 144.201,300.220 144.963,300.426 145.091 C 300.633 145.219,300.802 145.580,300.802 145.893 C 300.802 146.206,301.065 146.725,301.386 147.046 C 301.707 147.367,301.969 147.718,301.969 147.827 C 301.969 147.935,302.530 148.887,303.215 149.942 C 304.979 152.657,305.119 152.890,305.762 154.194 C 306.079 154.836,306.492 155.624,306.680 155.945 C 306.868 156.265,307.136 156.725,307.277 156.966 C 307.418 157.206,307.745 157.896,308.005 158.497 C 308.264 159.099,308.578 159.592,308.701 159.592 C 308.825 159.592,309.074 160.041,309.256 160.589 C 309.437 161.138,309.775 161.745,310.008 161.938 C 310.240 162.131,310.430 162.535,310.430 162.837 C 310.430 163.138,310.680 163.634,310.984 163.938 C 311.289 164.243,311.625 164.890,311.732 165.377 C 311.839 165.863,312.112 166.415,312.338 166.603 C 312.564 166.791,312.835 167.401,312.939 167.959 C 313.044 168.518,313.310 169.044,313.531 169.128 C 313.751 169.213,313.931 169.496,313.931 169.757 C 313.931 170.210,314.791 172.194,315.999 174.529 C 316.306 175.122,316.557 175.794,316.557 176.021 C 316.557 176.249,316.820 176.769,317.141 177.177 C 317.462 177.585,317.724 178.175,317.724 178.490 C 317.724 178.804,317.967 179.374,318.263 179.756 C 318.560 180.139,318.882 180.961,318.980 181.583 C 319.078 182.204,319.344 182.926,319.571 183.187 C 319.799 183.448,320.070 184.141,320.175 184.726 C 320.280 185.312,320.545 185.940,320.764 186.122 C 320.983 186.303,321.248 187.028,321.354 187.732 C 321.459 188.436,321.723 189.158,321.939 189.337 C 322.155 189.517,322.420 190.136,322.528 190.714 C 322.637 191.291,322.979 192.237,323.288 192.814 C 323.598 193.392,323.852 194.195,323.853 194.598 C 323.854 195.002,324.116 195.726,324.435 196.207 C 324.754 196.689,325.015 197.478,325.016 197.962 C 325.017 198.446,325.281 199.332,325.602 199.930 C 325.923 200.529,326.185 201.384,326.185 201.830 C 326.185 202.277,326.405 202.956,326.674 203.340 C 326.943 203.724,327.266 204.689,327.392 205.484 C 327.518 206.280,327.805 207.143,328.031 207.404 C 328.257 207.664,328.515 208.621,328.603 209.529 C 328.691 210.437,328.956 211.488,329.190 211.863 C 329.425 212.238,329.694 213.251,329.788 214.114 C 329.882 214.977,330.142 215.962,330.364 216.302 C 330.587 216.643,330.864 217.710,330.981 218.673 C 331.097 219.635,331.370 220.701,331.587 221.040 C 331.805 221.380,332.071 222.496,332.179 223.520 C 332.288 224.545,332.563 225.772,332.791 226.248 C 333.019 226.724,333.284 228.103,333.381 229.312 C 333.478 230.521,333.745 231.969,333.976 232.531 C 334.207 233.093,334.511 234.646,334.652 235.984 C 334.792 237.321,335.061 238.601,335.250 238.828 C 335.439 239.056,335.701 240.797,335.833 242.697 C 335.965 244.598,336.266 246.665,336.502 247.292 C 336.738 247.919,337.001 249.758,337.087 251.379 C 337.172 253.001,337.435 254.839,337.670 255.464 C 337.957 256.228,338.153 258.325,338.266 261.853 C 338.359 264.753,338.593 267.562,338.789 268.125 C 339.032 268.823,339.197 272.749,339.312 280.525 L 339.480 291.904 339.543 281.090 C 339.591 272.779,339.504 269.504,339.163 266.940 C 338.919 265.105,338.597 261.568,338.447 259.081 C 338.298 256.594,338.038 254.103,337.871 253.545 C 337.704 252.987,337.423 251.094,337.248 249.338 C 337.072 247.582,336.811 245.837,336.668 245.459 C 336.524 245.081,336.269 243.315,336.101 241.534 C 335.933 239.752,335.674 238.067,335.524 237.788 C 335.375 237.509,335.052 236.048,334.806 234.541 C 334.031 229.795,332.510 222.645,331.708 219.985 C 331.394 218.942,331.139 217.826,331.141 217.505 C 331.143 217.185,330.891 216.134,330.581 215.171 C 329.968 213.269,329.584 211.821,328.920 208.911 C 328.684 207.875,328.379 206.890,328.244 206.723 C 328.108 206.556,327.802 205.697,327.563 204.814 C 327.324 203.931,326.996 202.815,326.833 202.334 C 325.819 199.327,325.526 198.377,325.179 196.983 C 324.965 196.127,324.645 195.280,324.467 195.102 C 324.289 194.923,324.143 194.544,324.143 194.258 C 324.143 193.726,323.045 190.729,322.066 188.589 C 321.764 187.930,321.517 187.163,321.517 186.884 C 321.517 186.605,321.322 186.029,321.083 185.603 C 320.845 185.177,320.451 184.271,320.208 183.589 C 319.230 180.843,318.832 179.814,318.291 178.629 C 317.616 177.151,316.780 175.275,315.953 173.377 C 315.621 172.615,315.227 171.794,315.077 171.554 C 314.928 171.313,314.672 170.788,314.509 170.387 C 313.447 167.772,310.802 162.538,307.652 156.820 C 306.945 155.536,306.171 154.058,305.932 153.535 C 305.693 153.012,305.032 151.863,304.463 150.982 C 302.198 147.476,301.453 146.286,301.096 145.606 C 300.891 145.214,300.606 144.755,300.463 144.584 C 300.320 144.414,299.785 143.618,299.274 142.815 C 298.762 142.013,298.249 141.289,298.134 141.206 C 297.702 140.895,295.170 136.952,294.952 136.251 L 294.726 135.522 294.700 136.221 M252.438 264.041 C 252.438 264.602,252.498 264.832,252.572 264.551 C 252.645 264.271,252.645 263.811,252.572 263.530 C 252.498 263.249,252.438 263.479,252.438 264.041 M147.405 273.669 C 147.405 274.230,147.465 274.460,147.539 274.179 C 147.612 273.899,147.612 273.439,147.539 273.158 C 147.465 272.877,147.405 273.107,147.405 273.669 " stroke="none" fill="#a1a4f4" fill-rule="evenodd"></path><path id="path4" d="M294.811 135.303 C 295.112 136.513,295.382 136.954,299.238 142.524 C 300.856 144.861,303.720 149.306,303.720 149.481 C 303.720 149.589,304.148 150.300,304.671 151.061 C 305.193 151.821,306.120 153.428,306.731 154.632 C 307.341 155.835,308.134 157.345,308.493 157.987 C 309.060 159.000,312.150 164.771,312.789 166.010 C 312.913 166.251,313.301 167.104,313.651 167.907 C 314.381 169.580,315.495 172.046,316.286 173.742 C 318.038 177.494,319.123 179.957,319.306 180.598 C 319.421 180.999,319.691 181.721,319.905 182.203 C 320.120 182.684,320.649 184.063,321.080 185.266 C 321.510 186.470,322.043 187.848,322.264 188.330 C 322.716 189.315,323.399 191.191,324.018 193.144 C 324.247 193.866,324.567 194.719,324.729 195.040 C 324.892 195.361,325.210 196.280,325.437 197.082 C 326.037 199.207,326.953 202.201,327.310 203.209 C 328.143 205.558,329.526 210.287,330.126 212.837 C 330.731 215.411,331.379 217.895,331.876 219.548 C 332.342 221.099,333.066 224.344,333.535 226.988 C 333.692 227.870,334.071 229.647,334.379 230.936 C 334.686 232.225,334.938 233.611,334.938 234.017 C 334.938 234.423,335.187 235.732,335.491 236.925 C 335.795 238.119,336.131 240.041,336.237 241.196 C 336.343 242.352,336.550 243.718,336.697 244.232 C 336.845 244.746,337.109 246.558,337.285 248.258 C 337.461 249.958,337.730 251.809,337.882 252.371 C 338.035 252.932,338.352 255.755,338.587 258.643 C 338.822 261.532,339.173 264.945,339.367 266.229 C 339.595 267.739,339.726 272.656,339.736 280.160 C 339.745 286.586,339.866 291.757,340.007 291.758 C 340.468 291.758,340.013 264.467,339.516 262.290 C 339.278 261.247,338.988 258.621,338.872 256.455 C 338.756 254.289,338.470 251.945,338.236 251.247 C 338.003 250.549,337.700 248.490,337.563 246.672 C 337.426 244.853,337.177 243.110,337.010 242.798 C 336.843 242.485,336.582 240.913,336.430 239.304 C 336.279 237.696,335.994 236.077,335.796 235.708 C 335.598 235.339,335.326 233.944,335.191 232.609 C 335.055 231.273,334.764 229.823,334.544 229.387 C 334.324 228.950,334.068 227.650,333.976 226.499 C 333.884 225.348,333.622 224.035,333.393 223.581 C 333.164 223.128,332.898 222.051,332.800 221.188 C 332.702 220.326,332.442 219.341,332.221 219.000 C 332.000 218.660,331.729 217.596,331.618 216.636 C 331.507 215.676,331.236 214.617,331.016 214.281 C 330.797 213.946,330.525 212.893,330.412 211.941 C 330.300 210.990,330.028 209.925,329.808 209.576 C 329.588 209.226,329.319 208.372,329.211 207.679 C 329.103 206.986,328.772 205.961,328.475 205.402 C 328.178 204.843,327.936 204.022,327.936 203.577 C 327.936 203.133,327.673 202.280,327.352 201.681 C 327.031 201.082,326.769 200.260,326.769 199.854 C 326.769 199.448,326.506 198.626,326.185 198.027 C 325.864 197.429,325.601 196.577,325.601 196.135 C 325.600 195.693,325.360 194.938,325.067 194.457 C 324.773 193.975,324.451 193.073,324.351 192.451 C 324.250 191.829,323.982 191.107,323.755 190.846 C 323.528 190.585,323.256 189.893,323.151 189.307 C 323.046 188.722,322.781 188.094,322.562 187.912 C 322.343 187.730,322.078 187.006,321.972 186.302 C 321.867 185.598,321.604 184.875,321.387 184.696 C 321.171 184.517,320.906 183.898,320.798 183.320 C 320.689 182.742,320.347 181.797,320.038 181.219 C 319.728 180.642,319.475 179.925,319.475 179.627 C 319.475 179.329,319.212 178.752,318.891 178.344 C 318.570 177.936,318.308 177.416,318.308 177.188 C 318.308 176.961,318.061 176.289,317.760 175.696 C 317.458 175.103,316.947 174.026,316.623 173.304 C 316.298 172.582,315.692 171.267,315.274 170.382 C 314.857 169.498,314.515 168.627,314.515 168.449 C 314.515 168.270,314.318 167.961,314.077 167.761 C 313.837 167.561,313.638 167.184,313.635 166.923 C 313.633 166.662,313.443 166.120,313.212 165.718 C 312.982 165.317,312.576 164.497,312.310 163.895 C 312.044 163.293,311.719 162.801,311.589 162.801 C 311.459 162.801,311.266 162.409,311.160 161.929 C 311.055 161.449,310.849 160.983,310.703 160.893 C 310.557 160.803,309.962 159.784,309.380 158.628 C 307.751 155.392,307.277 154.514,306.961 154.151 C 306.801 153.967,306.469 153.376,306.222 152.838 C 305.730 151.764,305.552 151.464,303.978 149.052 C 303.389 148.149,302.824 147.149,302.722 146.829 C 302.621 146.509,302.279 146.013,301.962 145.726 C 301.645 145.440,301.386 145.101,301.386 144.973 C 301.386 144.846,300.959 144.132,300.438 143.388 C 299.916 142.644,299.358 141.812,299.198 141.539 C 299.037 141.267,298.738 140.851,298.534 140.617 C 298.329 140.382,297.741 139.533,297.228 138.731 C 296.715 137.929,296.142 137.141,295.955 136.980 C 295.768 136.820,295.459 136.196,295.269 135.594 C 294.869 134.333,294.515 134.107,294.811 135.303 M104.382 137.166 C 103.273 139.187,103.054 139.532,102.766 139.718 C 102.613 139.817,102.240 140.342,101.937 140.884 C 101.107 142.370,100.838 142.796,100.434 143.264 C 99.892 143.893,97.403 147.706,97.210 148.202 C 97.119 148.437,96.545 149.383,95.933 150.304 C 95.322 151.224,94.821 152.167,94.821 152.398 C 94.821 152.629,94.638 152.889,94.413 152.975 C 94.188 153.062,93.850 153.601,93.661 154.174 C 93.472 154.746,93.201 155.215,93.060 155.215 C 92.918 155.215,92.645 155.740,92.453 156.382 C 92.260 157.024,91.998 157.549,91.869 157.549 C 91.741 157.549,91.478 158.074,91.286 158.716 C 91.093 159.358,90.836 159.883,90.713 159.883 C 90.591 159.883,90.332 160.376,90.139 160.977 C 89.946 161.579,89.618 162.268,89.410 162.509 C 89.202 162.750,88.943 163.302,88.834 163.737 C 88.726 164.172,88.457 164.677,88.236 164.861 C 88.015 165.044,87.753 165.631,87.652 166.165 C 87.552 166.700,87.293 167.205,87.077 167.288 C 86.861 167.370,86.595 167.915,86.485 168.498 C 86.376 169.081,86.114 169.624,85.904 169.705 C 85.693 169.786,85.432 170.268,85.325 170.776 C 85.217 171.284,84.971 171.896,84.778 172.137 C 84.208 172.851,82.859 175.656,82.859 176.130 C 82.859 176.370,82.597 176.901,82.276 177.309 C 81.955 177.717,81.692 178.331,81.692 178.672 C 81.692 179.014,81.447 179.751,81.148 180.311 C 80.848 180.870,80.505 181.787,80.386 182.349 C 80.266 182.910,80.001 183.567,79.796 183.807 C 79.591 184.048,79.328 184.705,79.212 185.266 C 79.096 185.828,78.834 186.484,78.629 186.725 C 78.424 186.966,78.158 187.622,78.039 188.184 C 77.919 188.745,77.576 189.663,77.277 190.222 C 76.977 190.781,76.732 191.520,76.732 191.864 C 76.732 192.207,76.539 192.649,76.302 192.846 C 76.066 193.042,75.784 193.681,75.676 194.267 C 75.568 194.853,75.236 195.789,74.939 196.349 C 74.642 196.908,74.398 197.714,74.398 198.140 C 74.398 198.566,74.139 199.487,73.821 200.187 C 73.504 200.886,73.241 201.825,73.238 202.273 C 73.234 202.720,72.987 203.574,72.689 204.169 C 72.391 204.765,72.065 205.876,71.965 206.640 C 71.865 207.403,71.598 208.322,71.372 208.682 C 71.145 209.042,70.869 209.982,70.758 210.771 C 70.646 211.560,70.384 212.479,70.174 212.813 C 69.965 213.147,69.702 214.066,69.591 214.855 C 69.479 215.644,69.211 216.563,68.994 216.898 C 68.778 217.232,68.469 218.359,68.309 219.402 C 68.149 220.445,67.812 222.016,67.561 222.894 C 67.310 223.771,67.104 224.990,67.104 225.602 C 67.104 226.214,66.902 227.198,66.656 227.788 C 66.409 228.379,66.134 229.654,66.045 230.623 C 65.956 231.592,65.633 233.141,65.327 234.064 C 65.021 234.987,64.770 236.337,64.770 237.064 C 64.770 237.790,64.561 238.873,64.306 239.470 C 64.051 240.066,63.731 241.894,63.595 243.531 C 63.459 245.168,63.199 246.784,63.017 247.123 C 62.836 247.462,62.561 249.471,62.406 251.587 C 62.251 253.703,61.984 255.762,61.813 256.163 C 61.643 256.565,61.321 259.781,61.099 263.311 C 60.877 266.842,60.577 270.584,60.431 271.627 C 60.066 274.252,59.758 292.059,60.090 291.320 C 60.235 290.999,60.371 287.980,60.394 284.610 C 60.417 281.240,60.550 277.301,60.690 275.857 C 60.831 274.413,61.086 270.802,61.258 267.834 C 61.430 264.865,61.759 261.058,61.990 259.373 C 62.220 257.688,62.493 255.193,62.596 253.829 C 62.699 252.465,62.957 250.562,63.170 249.599 C 63.383 248.636,63.646 246.864,63.754 245.660 C 63.862 244.457,64.200 242.404,64.506 241.098 C 64.812 239.792,65.062 238.430,65.062 238.070 C 65.062 237.710,65.315 236.415,65.625 235.192 C 65.935 233.969,66.329 232.181,66.502 231.218 C 66.979 228.561,67.388 226.510,67.986 223.778 C 68.284 222.414,68.615 220.642,68.720 219.840 C 68.826 219.037,69.053 218.118,69.226 217.797 C 69.398 217.476,69.705 216.492,69.908 215.609 C 70.110 214.726,70.467 213.414,70.699 212.691 C 70.932 211.969,71.385 210.460,71.705 209.336 C 72.785 205.552,73.540 202.928,74.099 201.021 C 74.404 199.978,74.784 198.665,74.943 198.104 C 75.294 196.863,76.067 194.669,76.433 193.873 C 76.946 192.759,78.191 189.450,78.191 189.201 C 78.191 189.064,78.434 188.418,78.731 187.765 C 79.028 187.113,79.633 185.594,80.076 184.391 C 80.519 183.187,81.129 181.663,81.432 181.004 C 81.736 180.344,81.984 179.659,81.984 179.480 C 81.984 179.125,82.631 177.633,84.346 174.034 C 84.958 172.750,85.595 171.371,85.763 170.970 C 85.930 170.569,86.199 170.044,86.360 169.803 C 86.521 169.562,86.783 169.037,86.943 168.636 C 87.103 168.235,87.356 167.710,87.505 167.469 C 87.654 167.228,89.065 164.430,90.642 161.251 C 93.584 155.317,94.036 154.455,95.258 152.443 C 95.649 151.802,96.173 150.883,96.425 150.401 C 97.156 149.002,99.131 145.912,102.157 141.435 C 104.698 137.675,105.653 135.959,105.204 135.959 C 105.117 135.959,104.747 136.502,104.382 137.166 " stroke="none" fill="#7f82ed" fill-rule="evenodd"></path></g></svg>